<?xml version="1.0" encoding="UTF-8"?>
<svg id="Camada_1" xmlns="http://www.w3.org/2000/svg" version="1.1" viewBox="0 0 1080 1080">
  <!-- Generator: Adobe Illustrator 30.2.1, SVG Export Plug-In . SVG Version: 2.1.1 Build 1)  -->
  <defs>
    <style>
      .st0 {
        fill: #fff;
      }
    </style>
  </defs>
  <path class="st0" d="M1008.94,333.29c6.5,20.29-16.06,29.77-27.2,11.69l-18.26-11.52C799.41-2.03,324.66-21.11,134.35,300.65l-19.27,10.32c-14.07,12.21-30.49-1.8-23.44-19.18C185.95,121.44,368.65,19.25,563.16,28.05c194.51,8.8,367.23,127.07,445.77,305.24Z"/>
  <path class="st0" d="M973.44,753.7c12.38-4.12,23.79-2.55,26.5,12.32-89.25,181.61-277,293.7-479.21,286.09-202.21-7.61-381.01-133.49-456.35-321.29-.15-14.86,15.47-20.01,26.71-12.36l17.82,12.28c158.25,356.97,659.57,376.99,845.79,33.78l18.74-10.82Z"/>
  <path class="st0" d="M115.08,310.97l1.23,23.22c-54.81,112.63-62.49,243.07-21.28,361.35l-3.95,22.92c-7.16,6.64-15.37,11.92-26.71,12.36-57.37-143-47.36-304.23,27.27-439.04,6.21,7.73,14.03,12.65,23.44,19.18Z"/>
  <path class="st0" d="M999.94,766.02c-12.86-1.53-22.52-1.78-26.5-12.32l-1.9-23.63c50.35-114.6,52.98-245.07,7.35-361.56l2.86-23.53c12.01-.19,20.68-4.88,27.2-11.69,61.05,138.5,57.76,296.9-9,432.74Z"/>
  <g>
    <path class="st0" d="M803.89,688.7c11.24.18,16.33,4.07,10.49,14-33.67,15.19-22.66,63.55-86.44,114.03-16.66,8.49-29.66,10.14-17.35-9.58-2.65-1.45-5.05-3.07-6.56-5.29-5.23-7.71,25.63-63.46,34.64-71.2-10.96-4.24-8.12-5.9,1.69-10.72,27.02-22.03,45.83-220.7-6.57-234.68-12.89-3.31-14.85-7.44-5.88-12.37,42.34-4.01,74.62,21.48,86.64,66.28,13.35,49.77,5.22,102.09-10.66,149.52Z"/>
    <path class="st0" d="M605.14,144.98c20.09-3.74,18.21,4.58,5.77,17.87l7.33,21.83c-12.34,70.01-18.51,140.1-18.53,210.27l-12,7.74c-29,38.19,11.88,73.09-20.42,76.71-24.15,2.71-5.61-50.71-21.13-59.33-9.18-75.47-4.58-177.44,28.36-251.09,7.2-16.11,19.91-18.11,30.61-24Z"/>
    <path class="st0" d="M166.91,537.94c-3.79-1.84-8.38-2.35-11.02-.64-4.26,2.78-6.11,7.97-6.69,11.62-4.07-12.81-5.57-24.19,4.63-42.24,39.88-70.62,96.95-133.29,164.68-179.13,13.12-8.88,30.04-12.91,40.49,2.84-81.18,53.82-149.41,122.66-192.1,207.55Z"/>
    <path class="st0" d="M605.51,484.54c-.75-2.11-4.07-4.39-6.17-4.44-4.51-6.36-5.03-13.8-1.55-22.31,35.78-79.99,83.97-198.24,54.72-285.39-4.13-12.31-21.17-14.52-28.66-4.83l-12.94-4.73c1.36-6.15-2.36-13.15-5.77-17.87,28.57-15.72,64.42-5.34,76.88,29.68,29.56,83.07-28.56,241.66-76.52,309.88Z"/>
    <path class="st0" d="M740.36,719.94c.16,3.51-2.13,7.25-1.69,10.72l-7.79,14.86c-26.15,6.53-114.24,61.46-51.93,69.2,11.99-12.36,22.53-14.88,31.64-7.56,2.41,7.42,10.05,10.02,17.35,9.58-20.1,15.91-46.14,34.41-77.31,18.49-16.62-8.49-18.38-39.1-7.19-55.6,22.9-33.79,59.63-52.32,96.92-59.67Z"/>
    <path class="st0" d="M727.91,472.89l5.88,12.37c-85.16-13.98-116.85,146.89-127.46,204.06-5.02-8.23-11.06-14.74-11.41-24.67,1.22-.25,7.83,2.58,8.18-.06,9.84-74.64,39.53-183.62,124.81-191.7Z"/>
    <path class="st0" d="M814.38,702.7c-3.92-4.34-7.63-8.88-10.49-14,53.15-4.95,83.31-70.18,120.13-99.7-13.94,54.76-62.97,92.64-109.64,113.7Z"/>
    <path class="st0" d="M599.34,480.1c6.89-10.17,10.99-7.29,6.17,4.44-4.71,7.87-13.08,25.2-15.61,35.44l5.02,144.67c8.3,1.58,12.1,9.8,11.41,24.67-4.11,22.14,2.14,138.75-31.92,102.55-4.84-5.15-10.47-11.45-10.86-20.57-3.21-76.4-8.49-149.84-16.1-226.72-52.4,34.15-92.44,75.18-136.28,114.35-21.26,19-26.04,42.78-30.73,70.32-10.93,64.21-89.17,153.06-118.82,119.46-24.44-27.69,57.84-125.44,80.35-152.75,11.76-14.26,21.3-29.76,15.16-47.21-4.11-11.7-12.93-26.77-27.64-35.64-82.69-49.87-159.71.48-180.29-64.2-2.01-20.91,9.46-34.25,17.7-10.98-2.75,65.3,134.55-24.4,210.71,115.33,58.64-50.96,110.29-99.58,169.57-143.68l-1.03-89.52c5.4-1.75,12.93-2.89,15.11.98,8.6,15.25,6.22,83.87,3.85,19.86-.31-17.54,1.66-45.76,22.58-38.22,17.73,23.73,13.56,58.44,3.97,85.59-.28.8-3.23-14.47,7.65-8.18Z"/>
  </g>
</svg>