<?xml version="1.0" encoding="UTF-8"?>
<svg id="Camada_1" xmlns="http://www.w3.org/2000/svg" version="1.1" viewBox="0 0 1080 1080">
  <!-- Generator: Adobe Illustrator 30.2.1, SVG Export Plug-In . SVG Version: 2.1.1 Build 1)  -->
  <defs>
    <style>
      .st0 {
        font-family: Poppins-Medium, Poppins;
        font-size: 41.53px;
        font-weight: 500;
      }

      .st0, .st1 {
        fill: #387baf;
      }
    </style>
  </defs>
  <g>
    <g>
      <path class="st1" d="M445.34,471.44c2.16,6.73-5.33,9.87-9.02,3.88l-6.06-3.82c-54.41-111.26-211.86-117.59-274.98-10.88l-6.39,3.42c-4.67,4.05-10.11-.6-7.77-6.36,31.28-56.5,91.87-90.39,156.38-87.47,64.51,2.92,121.79,42.14,147.84,101.23Z"/>
      <path class="st1" d="M433.56,610.87c4.11-1.37,7.89-.85,8.79,4.09-29.6,60.23-91.87,97.4-158.93,94.88-67.06-2.52-126.36-44.27-151.35-106.55-.05-4.93,5.13-6.63,8.86-4.1l5.91,4.07c52.48,118.39,218.74,125.03,280.5,11.2l6.22-3.59Z"/>
      <path class="st1" d="M148.9,464.04l.41,7.7c-18.18,37.35-20.73,80.61-7.06,119.84l-1.31,7.6c-2.38,2.2-5.1,3.95-8.86,4.1-19.03-47.43-15.71-100.9,9.04-145.6,2.06,2.56,4.65,4.2,7.77,6.36Z"/>
      <path class="st1" d="M442.35,614.96c-4.26-.51-7.47-.59-8.79-4.09l-.63-7.84c16.7-38.01,17.57-81.28,2.44-119.91l.95-7.8c3.98-.06,6.86-1.62,9.02-3.88,20.25,45.93,19.16,98.46-2.98,143.51Z"/>
      <g>
        <path class="st1" d="M377.34,589.31c3.73.06,5.42,1.35,3.48,4.64-11.17,5.04-7.51,21.08-28.67,37.82-5.52,2.82-9.84,3.36-5.75-3.18-.88-.48-1.68-1.02-2.18-1.76-1.73-2.56,8.5-21.04,11.49-23.61-3.63-1.41-2.69-1.96.56-3.55,8.96-7.31,15.2-73.19-2.18-77.83-4.28-1.1-4.93-2.47-1.95-4.1,14.04-1.33,24.75,7.12,28.73,21.98,4.43,16.51,1.73,33.86-3.53,49.59Z"/>
        <path class="st1" d="M311.42,409c6.66-1.24,6.04,1.52,1.91,5.93l2.43,7.24c-4.09,23.22-6.14,46.46-6.15,69.74l-3.98,2.57c-9.62,12.66,3.94,24.24-6.77,25.44-8.01.9-1.86-16.82-7.01-19.68-3.04-25.03-1.52-58.85,9.41-83.27,2.39-5.34,6.6-6.01,10.15-7.96Z"/>
        <path class="st1" d="M166.08,539.32c-1.26-.61-2.78-.78-3.65-.21-1.41.92-2.03,2.64-2.22,3.85-1.35-4.25-1.85-8.02,1.53-14.01,13.23-23.42,32.15-44.21,54.62-59.41,4.35-2.95,9.96-4.28,13.43.94-26.92,17.85-49.55,40.68-63.71,68.83Z"/>
        <path class="st1" d="M311.54,521.61c-.25-.7-1.35-1.46-2.05-1.47-1.5-2.11-1.67-4.58-.51-7.4,11.87-26.53,27.85-65.75,18.15-94.65-1.37-4.08-7.02-4.81-9.51-1.6l-4.29-1.57c.45-2.04-.78-4.36-1.91-5.93,9.48-5.21,21.37-1.77,25.5,9.84,9.8,27.55-9.47,80.15-25.38,102.77Z"/>
        <path class="st1" d="M356.27,599.68c.05,1.16-.71,2.41-.56,3.55l-2.58,4.93c-8.67,2.16-37.89,20.38-17.22,22.95,3.98-4.1,7.47-4.93,10.49-2.51.8,2.46,3.33,3.32,5.75,3.18-6.67,5.28-15.3,11.41-25.64,6.13-5.51-2.82-6.09-12.97-2.38-18.44,7.6-11.21,19.78-17.35,32.14-19.79Z"/>
        <path class="st1" d="M352.14,517.74l1.95,4.1c-28.24-4.64-38.75,48.72-42.27,67.68-1.67-2.73-3.67-4.89-3.78-8.18.4-.08,2.6.86,2.71-.02,3.26-24.76,13.11-60.9,41.39-63.58Z"/>
        <path class="st1" d="M380.81,593.96c-1.3-1.44-2.53-2.95-3.48-4.64,17.63-1.64,27.63-23.27,39.84-33.06-4.62,18.16-20.88,30.72-36.36,37.71Z"/>
        <path class="st1" d="M309.5,520.14c2.29-3.37,3.65-2.42,2.05,1.47-1.56,2.61-4.34,8.36-5.18,11.75l1.66,47.98c2.75.52,4.01,3.25,3.78,8.18-1.36,7.34.71,46.02-10.59,34.01-1.61-1.71-3.47-3.8-3.6-6.82-1.06-25.34-2.82-49.7-5.34-75.19-17.38,11.33-30.66,24.93-45.2,37.92-7.05,6.3-8.64,14.19-10.19,23.32-3.62,21.29-29.57,50.76-39.41,39.62-8.11-9.18,19.18-41.6,26.65-50.66,3.9-4.73,7.06-9.87,5.03-15.66-1.36-3.88-4.29-8.88-9.17-11.82-27.42-16.54-52.97.16-59.79-21.29-.67-6.93,3.14-11.36,5.87-3.64-.91,21.66,44.62-8.09,69.88,38.25,19.45-16.9,36.58-33.02,56.24-47.65l-.34-29.69c1.79-.58,4.29-.96,5.01.32,2.85,5.06,2.06,27.82,1.28,6.59-.1-5.82.55-15.17,7.49-12.68,5.88,7.87,4.5,19.38,1.32,28.39-.09.26-1.07-4.8,2.54-2.71Z"/>
      </g>
    </g>
    <g>
      <path class="st1" d="M773.98,564.58c-5.2-1.1-6.55-1.92-2.78-6.32l-4.61-1.33c-8.83-21.66-16.14-43.64-21.94-65.91-1.93.86-2.49-.45-1.67-3.91,1.3-3.43-.09-8.17,4.04-11.49,2.24-1.8,5.36-2.75,8.04-1.94,1.89.57,4.15,2.81,5.31,6.01l44.24,121.97c1.61,4.43-3.99,8.79-6.86,9.29-3.54.62-8.13-1.7-9.62-6.19-4.64-13.97-10.43-26.78-14.15-40.18Z"/>
      <rect class="st1" x="590.32" y="534.11" width="137.74" height="16.57" transform="translate(116.71 1201.52) rotate(-89.99)"/>
      <path class="st1" d="M858.76,478.13c8.11-1.18,10.62,2.04,2.94,6.65l.98,4.32c-31.19,29.33-32.11,78.58,1.14,106.91l1.04,5.38c4.93,3.51,4.26,6.35-1.95,6.96-26.29-10.44-43.88-35.48-44.78-63.75-.9-28.27,15.06-54.38,40.63-66.47Z"/>
      <path class="st1" d="M923.63,480.26c22.51,12.52,36.49,36.24,36.51,62,.03,25.76-13.9,49.51-36.38,62.08-12.17,4.07-15.37,3.15-9.61-2.76l.73-5.41c30.86-26.4,32.16-76.5,3.37-105.02l-.54-5.63c-6.35-7.29-.96-7,5.92-5.25Z"/>
      <path class="st1" d="M744.65,491.02c1.37,2.09,1.87,4.58,1.51,7.47-6.97,18.82-13.23,37.59-18.79,56.3l41.02-.39,2.81,3.85c.79,2.18,2.14,4.04,2.78,6.32l-55.44.7c-1.94,1.68-17.62,57.27-20.19,44.47-.16-.81-.86-2.6-.22-4.29l44.86-118.36c.58,1.03.58,3.23,1.67,3.91Z"/>
      <path class="st1" d="M923.63,480.26c-1.74.78-3.34.72-4.95,1.33-1.42.54-1.31,2.51-.98,3.92l-4.77,1.28c-14.15-9.31-32.25-6.56-46.89.17l-4.35-2.19c.86-.72,2.26-2.98,1.49-3.81-.69-.74-3.56-1.51-4.43-2.84,20.7-9.79,44.85-8.99,64.87,2.13Z"/>
      <path class="st1" d="M914.15,601.58c.08.97-.84,1.88-.19,4.01,3.43-1.48,6.26-2.23,9.8-1.25-18.65,10.42-40.99,11.89-60.85,4.01,1.4-2.84,1.72-4.91,1.95-6.96l4.17-2.08c12.64,5.97,28.16,6.81,40.79.41l4.31,1.86Z"/>
    </g>
    <path class="st1" d="M525.76,609.41c-5.68.06-9.17-1.81-11.23-3.67-2.63-2.39-2.59-5.83-2.59-9.65v-62.22c-.02-16.62.92-32.48-.1-48.87-.35-5.6,4.71-9.76,10.66-9.74l48.49.2c16.23.07,28.59,11.16,32.04,22.4,4.51,14.7-2.22,28.06-17.64,35.51,20.7,8.21,31.82,24.62,28.78,42.46-2.88,16.82-19.26,32.81-41.17,33.05l-47.23.52ZM576.42,528.03c17.71-11.52,12.75-35.45-1.29-46.42l-43.84-.57.97,50.12c13.43-.76,32.11,4.71,44.17-3.13ZM587.61,594.08c9.82-14.73,10.31-31.38,1.4-45.68-11.39-18.28-35.61-11.23-57.6-12.42l.05,67.58,41.42-.27c6.06-.04,10.12-5.3,14.72-9.2Z"/>
  </g>
  <text class="st0" transform="translate(510.33 661.12)"><tspan x="0" y="0">Corretora de Seguros</tspan></text>
</svg>